HIERARCHY
ROOT Hips
{
	OFFSET 0.000000 0.000000 0.000000
	CHANNELS 6 Xposition Yposition Zposition Xrotation Yrotation Zrotation
	JOINT LeftUpLeg_virtual
	{
		OFFSET 0.000000 0.000000 0.000000
		CHANNELS 3 Xrotation Yrotation Zrotation
		JOINT LeftUpLeg
		{
			OFFSET 13.026900 -6.336304 -1.092800
			CHANNELS 3 Xrotation Yrotation Zrotation
			JOINT LeftLeg
			{
				OFFSET 0.524474 -46.096886 9.782700
				CHANNELS 3 Xrotation Yrotation Zrotation
				JOINT LeftFoot
				{
					OFFSET -0.524474 -53.427422 -12.948200
					CHANNELS 3 Xrotation Yrotation Zrotation
					JOINT LeftToeBase
					{
						OFFSET 0.192200 -14.009700 16.364100
						CHANNELS 3 Xrotation Yrotation Zrotation
						JOINT LeftToe_End
						{
							OFFSET -1.784700 -0.561700 9.474800
							CHANNELS 3 Xrotation Yrotation Zrotation
							End Site
							{
								OFFSET 0 0 0
							}
						}
					}
				}
			}
		}
	}
	JOINT RightUpLeg_virtual
	{
		OFFSET 0.000000 0.000000 0.000000
		CHANNELS 3 Xrotation Yrotation Zrotation
		JOINT RightUpLeg
		{
			OFFSET -12.883000 -6.336304 -1.092800
			CHANNELS 3 Xrotation Yrotation Zrotation
			JOINT RightLeg
			{
				OFFSET -0.524587 -46.096825 9.782800
				CHANNELS 3 Xrotation Yrotation Zrotation
				JOINT RightFoot
				{
					OFFSET 0.524587 -53.427383 -12.948300
					CHANNELS 3 Xrotation Yrotation Zrotation
					JOINT RightToeBase
					{
						OFFSET -0.192200 -14.009700 16.364100
						CHANNELS 3 Xrotation Yrotation Zrotation
						JOINT RightToe_End
						{
							OFFSET 1.784700 -0.561700 9.474800
							CHANNELS 3 Xrotation Yrotation Zrotation
							End Site
							{
								OFFSET 0 0 0
							}
						}
					}
				}
			}
		}
	}
	JOINT Spine_virtual
	{
		OFFSET 0.000000 0.000000 0.000000
		CHANNELS 3 Xrotation Yrotation Zrotation
		JOINT Spine
		{
			OFFSET 0.072000 7.257294 -0.789700
			CHANNELS 3 Xrotation Yrotation Zrotation
			JOINT Spine1
			{
				OFFSET 0.000000 12.508769 -0.658067
				CHANNELS 3 Xrotation Yrotation Zrotation
				JOINT Spine1_split
				{
					OFFSET 0.000000 12.508769 -0.658067
					CHANNELS 3 Xrotation Yrotation Zrotation
					JOINT Spine2
					{
						OFFSET 0.000000 12.508769 -0.658067
						CHANNELS 3 Xrotation Yrotation Zrotation
						JOINT Neck_virtual
						{
							OFFSET 0.000000 0.000000 0.000000
							CHANNELS 3 Xrotation Yrotation Zrotation
							JOINT Neck
							{
								OFFSET 0.000000 14.033295 7.520400
								CHANNELS 3 Xrotation Yrotation Zrotation
								JOINT Head
								{
									OFFSET 0.000000 8.198502 5.703100
									CHANNELS 3 Xrotation Yrotation Zrotation
									JOINT HeadTop_End
									{
										OFFSET 0.000000 17.760803 13.332701
										CHANNELS 3 Xrotation Yrotation Zrotation
										End Site
										{
											OFFSET 0 0 0
										}
									}
								}
							}
						}
						JOINT LeftShoulder_virtual
						{
							OFFSET 0.000000 0.000000 0.000000
							CHANNELS 3 Xrotation Yrotation Zrotation
							JOINT LeftShoulder
							{
								OFFSET 6.292450 5.785301 -0.669000
								CHANNELS 3 Xrotation Yrotation Zrotation
								JOINT LeftShoulder_split
								{
									OFFSET 6.292450 5.785301 -0.669000
									CHANNELS 3 Xrotation Yrotation Zrotation
									JOINT LeftArm
									{
										OFFSET 13.907140 -6.093903 1.965100
										CHANNELS 3 Xrotation Yrotation Zrotation
										JOINT LeftForeArm
										{
											OFFSET 34.140198 0.000000 0.000000
											CHANNELS 3 Xrotation Yrotation Zrotation
											JOINT LeftHand
											{
												OFFSET 40.960209 0.000000 0.000000
												CHANNELS 3 Xrotation Yrotation Zrotation
												End Site
												{
													OFFSET 0 0 0
												}
											}
										}
									}
								}
							}
						}
						JOINT RightShoulder_virtual
						{
							OFFSET 0.000000 0.000000 0.000000
							CHANNELS 3 Xrotation Yrotation Zrotation
							JOINT RightShoulder
							{
								OFFSET -6.292450 5.785301 -0.669000
								CHANNELS 3 Xrotation Yrotation Zrotation
								JOINT RightShoulder_split
								{
									OFFSET -6.292450 5.785301 -0.669000
									CHANNELS 3 Xrotation Yrotation Zrotation
									JOINT RightArm
									{
										OFFSET -13.907140 -6.093903 1.965100
										CHANNELS 3 Xrotation Yrotation Zrotation
										JOINT RightForeArm
										{
											OFFSET -34.140198 0.000000 0.000000
											CHANNELS 3 Xrotation Yrotation Zrotation
											JOINT RightHand
											{
												OFFSET -40.960209 0.000000 0.000000
												CHANNELS 3 Xrotation Yrotation Zrotation
												End Site
												{
													OFFSET 0 0 0
												}
											}
										}
									}
								}
							}
						}
					}
				}
			}
		}
	}
}
MOTION
Frames: 4
Frame Time: 0.03333333
-1.051893 87.780220 2.048523 0.000000 0.000000 0.000000 6.860061 -53.165055 7.665688 -68.383758 18.353488 40.497612 50.847849 -17.682474 4.732618 6.370322 2.453539 -11.530714 -1.856932 -4.368182 -0.088962 0.000000 0.000000 0.000000 4.350776 -52.818317 7.301305 -27.962562 3.290200 -29.468933 51.033524 10.016209 -6.509403 -22.927740 -6.103757 25.699471 0.230392 2.617971 1.733060 0.000000 0.000000 0.000000 8.934122 -50.823581 8.816851 12.591304 2.391550 -2.684191 4.456353 6.571224 -3.658955 0.471208 -2.585853 1.220255 0.000000 0.000000 0.000000 -4.382764 6.078013 -2.011880 0.803257 10.555024 -0.776941 -4.543901 23.846632 -1.811048 0.000000 0.000000 0.000000 -5.708571 6.173106 -2.372996 -1.228894 -10.151987 -4.183278 4.180238 -1.001087 -0.364895 -13.603129 1.848876 -43.605615 -22.837050 -27.667146 -15.688528 0.000000 0.000000 0.000000 -5.145826 5.793356 -2.442878 -2.393775 13.493923 0.608258 -2.479418 -4.457721 2.336537 1.021165 -14.155922 58.670116 -10.577430 44.533004 18.553000 0.000000 0.000000 0.000000 
-0.960587 87.782936 2.249893 0.000000 0.000000 0.000000 7.175798 -53.500424 7.696590 -68.169441 18.207450 40.743079 51.403485 -17.578129 4.733652 5.191694 2.506983 -10.805168 -2.110058 -4.365037 -0.019299 0.000000 0.000000 0.000000 4.750152 -52.547063 7.272458 -28.060075 3.985320 -29.308977 50.635324 10.226420 -6.574161 -22.779717 -5.725953 26.063122 0.460229 2.716485 1.685857 0.000000 0.000000 0.000000 9.257130 -51.249693 8.904425 12.551535 2.419659 -2.810058 4.521569 6.582642 -3.727424 0.530982 -2.402429 1.305780 0.000000 0.000000 0.000000 -4.389222 6.109059 -2.058289 0.490499 10.500872 -0.803493 -4.644519 23.919978 -1.775054 0.000000 0.000000 0.000000 -5.532784 6.211774 -2.422704 -1.227327 -10.231151 -4.118377 4.058294 -0.947628 -0.123213 -13.550899 1.938106 -43.315800 -22.818615 -27.521368 -15.720152 0.000000 0.000000 0.000000 -5.135743 5.800080 -2.575458 -2.284016 14.227291 0.844114 -1.904956 -4.841017 1.477797 1.256864 -14.521515 56.400222 -7.663569 40.845897 16.982632 0.000000 0.000000 0.000000 
-0.773288 87.719963 2.400921 0.000000 0.000000 0.000000 8.044327 -54.054302 8.108911 -67.490281 18.177039 41.148898 51.555531 -17.567576 4.503014 3.822439 2.656624 -10.652447 -2.438737 -4.326439 0.250581 0.000000 0.000000 0.000000 5.308935 -52.470527 7.428196 -28.944433 4.575718 -29.146774 50.482604 10.306533 -6.612361 -22.023571 -5.066856 26.825051 0.542177 2.724419 1.737291 0.000000 0.000000 0.000000 9.711974 -51.721737 9.110603 12.493220 2.496855 -2.945687 4.695363 6.599608 -3.861779 0.377555 -2.217972 1.355497 0.000000 0.000000 0.000000 -4.283078 6.135003 -2.187157 0.096503 10.452785 -0.905182 -4.662339 23.982442 -1.837024 0.000000 0.000000 0.000000 -5.262118 6.216197 -2.589371 -1.227552 -10.092907 -4.013295 3.954026 -0.837996 0.067570 -13.957083 2.082835 -42.808515 -22.641785 -27.379720 -15.599187 0.000000 0.000000 0.000000 -5.069652 5.816665 -2.804125 -2.329791 15.007205 1.124016 -1.694298 -4.834690 0.731194 2.088015 -15.287748 54.414611 -1.666738 37.320700 13.549261 0.000000 0.000000 0.000000 
-0.641562 87.550468 2.426937 0.000000 0.000000 0.000000 9.058573 -54.583108 8.699199 -66.751753 18.211593 41.699333 51.162382 -17.740028 4.156373 3.136781 2.778221 -11.222610 -2.736342 -4.245599 0.576565 0.000000 0.000000 0.000000 5.855116 -52.482016 7.726955 -30.274773 4.931603 -29.093054 51.061681 10.003858 -6.615891 -21.152703 -4.454313 27.718477 0.489047 2.619037 1.879822 0.000000 0.000000 0.000000 10.104168 -51.952943 9.390305 12.414754 2.603977 -3.064910 4.921550 6.593259 -4.057875 0.223334 -2.367565 1.305915 0.000000 0.000000 0.000000 -4.073074 6.119668 -2.397913 -0.309946 10.405038 -1.062062 -4.567596 23.983982 -2.004263 0.000000 0.000000 0.000000 -4.981515 6.172539 -2.853661 -1.228719 -9.707289 -3.810679 3.844444 -0.939192 0.234836 -14.825088 2.128942 -42.266167 -22.285852 -27.242633 -15.351870 0.000000 0.000000 0.000000 -4.960062 5.797141 -3.078471 -2.492993 15.781056 1.545205 -1.610889 -4.895229 0.244599 3.540347 -15.646017 52.964350 5.865766 34.857543 9.366885 0.000000 0.000000 0.000000 
